<?xml version="1.0" encoding="utf-8"?>
<!-- Generator: Adobe Illustrator 23.0.5, SVG Export Plug-In . SVG Version: 6.00 Build 0)  -->
<svg version="1.1" id="Layer_1" xmlns="http://www.w3.org/2000/svg" xmlns:xlink="http://www.w3.org/1999/xlink" x="0px" y="0px"
	 viewBox="0 0 130 130" style="enable-background:new 0 0 130 130;" xml:space="preserve">
<style type="text/css">
	.st0{fill:#FFFFFF;}
	.st1{fill:#E8E8E8;}
	.st2{display:none;fill:#60B0C5;}
	.st3{fill:#60B0C5;}
	.st4{fill:#FBA826;}
	.st5{fill:#B4E5EA;}
	.st6{fill:#203447;}
	.st7{fill:#4094A8;}
</style>
<g>
	<g>
		<path class="st0" d="M107.03,117.15H39.54c-2.79,0-5.07-2.28-5.07-5.07V7.5c0-2.79,2.28-5.07,5.07-5.07h67.48
			c2.79,0,5.07,2.28,5.07,5.07v104.58C112.1,114.87,109.82,117.15,107.03,117.15z"/>
		<path class="st1" d="M104.13,1.57h-9.18c3.45,0,6.25,2.33,6.25,5.21l-0.31,95.71c0,2.88,0.86,1.73,0.86,1.73l8.63-0.86V6.78
			C110.37,3.9,107.58,1.57,104.13,1.57z"/>
		<rect x="36.19" y="103.35" class="st2" width="75.91" height="12.08"/>
		<path class="st3" d="M105.37,117.15H42.06c-3.72,0-6.73-3.01-6.73-6.73v-7.07h76.77v7.07
			C112.1,114.14,109.09,117.15,105.37,117.15z"/>
		<path id="gear_1_" class="st4" d="M101.62,128.3c-1.87,0-3.39-1.52-3.39-3.39v-1.08c0-0.53-0.34-0.99-0.84-1.13
			c-1.39-0.4-2.75-0.95-4.02-1.65c-0.17-0.09-0.35-0.14-0.54-0.14c-0.31,0-0.62,0.13-0.84,0.35l-0.75,0.75
			c-0.64,0.64-1.49,0.99-2.4,0.99s-1.76-0.35-2.4-0.99l-1.84-1.84c-0.64-0.64-0.99-1.49-0.99-2.4c0-0.91,0.35-1.76,0.99-2.4
			l0.75-0.75c0.37-0.37,0.45-0.94,0.21-1.38c-0.7-1.27-1.25-2.63-1.65-4.02c-0.14-0.49-0.61-0.84-1.13-0.84H81.7
			c-1.87,0-3.39-1.52-3.39-3.39v-2.61c0-1.87,1.52-3.39,3.39-3.39h1.17c0.52,0,0.99-0.34,1.14-0.82c0.41-1.35,0.97-2.66,1.66-3.9
			c0.25-0.45,0.17-1.03-0.2-1.4l-0.87-0.87c-0.64-0.64-0.99-1.49-0.99-2.4c0-0.91,0.35-1.76,0.99-2.4l1.84-1.84
			c0.64-0.64,1.49-0.99,2.4-0.99c0.91,0,1.76,0.35,2.4,0.99l0.97,0.97c0.22,0.22,0.53,0.35,0.84,0.35c0.19,0,0.37-0.04,0.54-0.13
			c1.21-0.64,2.49-1.16,3.81-1.53c0.5-0.14,0.84-0.61,0.84-1.13v-1.42c0-1.87,1.52-3.39,3.39-3.39h2.61c1.87,0,3.39,1.52,3.39,3.39
			v1.52c0,0.52,0.34,0.98,0.82,1.12c1.28,0.39,2.52,0.91,3.69,1.55c0.17,0.09,0.36,0.14,0.56,0.14c0.32,0,0.61-0.12,0.84-0.35
			l1.09-1.09c0.64-0.64,1.49-0.99,2.4-0.99c0.91,0,1.76,0.35,2.4,0.99l1.84,1.84c1.32,1.32,1.32,3.47,0,4.8l-1.09,1.09
			c-0.37,0.37-0.45,0.94-0.21,1.39c0.64,1.17,1.16,2.41,1.55,3.69c0.15,0.48,0.61,0.82,1.12,0.82h1.52c1.87,0,3.39,1.52,3.39,3.39
			v2.61c0,1.87-1.52,3.39-3.39,3.39h-1.42c-0.52,0-0.99,0.35-1.13,0.84c-0.37,1.32-0.89,2.6-1.53,3.81
			c-0.24,0.45-0.15,1.01,0.22,1.37l0.97,0.97c0.64,0.64,0.99,1.49,0.99,2.4c0,0.91-0.35,1.76-0.99,2.4l-1.84,1.84
			c-0.64,0.64-1.49,0.99-2.4,0.99c-0.91,0-1.76-0.35-2.4-0.99l-0.87-0.87c-0.22-0.22-0.52-0.35-0.84-0.35
			c-0.2,0-0.39,0.05-0.56,0.15c-1.23,0.69-2.54,1.25-3.9,1.66c-0.49,0.15-0.82,0.61-0.82,1.14v1.17c0,1.87-1.52,3.39-3.39,3.39
			L101.62,128.3L101.62,128.3z M102.92,95.71c-4.4,0-7.97,3.58-7.97,7.97c0,4.4,3.58,7.97,7.97,7.97c4.4,0,7.97-3.58,7.97-7.97
			C110.89,99.29,107.32,95.71,102.92,95.71z"/>
		<path class="st5" d="M69.19,80.92H6.65c-2.25,0-4.1-1.84-4.1-4.1v-42.7c0-2.25,1.84-4.1,4.1-4.1h62.54c2.25,0,4.1,1.84,4.1,4.1
			v42.7C73.28,79.08,71.44,80.92,69.19,80.92z"/>
		<path class="st2" d="M67.75,29.27h-7.42V82h7.42c3.39,0,6.15-2.75,6.15-6.15V35.41C73.9,32.02,71.15,29.27,67.75,29.27z"/>
		<path class="st3" d="M69.21,30.03h-8c2.25,0,4.07,3.66,4.07,8.17v34.56c0,4.51-1.82,8.17-4.07,8.17h8c2.25,0,4.07-3.66,4.07-8.17
			V38.2C73.28,33.69,71.46,30.03,69.21,30.03z"/>
		<path class="st6" d="M30.59,67.47c-0.06,0.14-0.09,0.3-0.09,0.44c0,0.54,0.48,1.12,1.19,1.12c0.44,0,0.82-0.22,1-0.57L45.71,42.5
			c0.09-0.15,0.12-0.28,0.12-0.48c0-0.69-0.67-1.15-1.3-1.15c-0.43,0-0.72,0.17-0.89,0.53L30.59,67.47z"/>
		<path class="st6" d="M14.16,58.16c0,0.4,0.21,0.94,0.69,1.26l9.33,6.1c0.1,0.07,0.25,0.11,0.43,0.11c0.68,0,1.51-0.69,1.51-1.54
			c0-0.38-0.17-0.71-0.43-0.86l-7.71-5.06l0.08-0.05l7.61-5c0.27-0.18,0.44-0.51,0.44-0.87c0-0.85-0.83-1.58-1.51-1.58
			c-0.17,0-0.33,0.04-0.42,0.1l-9.34,6.11C14.37,57.19,14.16,57.76,14.16,58.16z"/>
		<path class="st6" d="M50.23,64.08c0,0.87,0.81,1.54,1.51,1.54c0.16,0,0.29-0.03,0.38-0.1l9.34-6.11c0.51-0.32,0.69-0.86,0.69-1.25
			c0-0.4-0.22-0.98-0.69-1.29l-9.33-6.1c-0.1-0.08-0.23-0.11-0.39-0.11c-0.68,0-1.51,0.7-1.51,1.58c0,0.34,0.16,0.68,0.42,0.87
			l7.72,5.05l-7.73,5.06C50.39,63.37,50.23,63.71,50.23,64.08z"/>
		<rect x="35.33" y="3.29" class="st3" width="75.05" height="11.21"/>
		<path class="st6" d="M9.01,83.75h58.14c4.33,0,7.85-3.52,7.85-7.85V35.46c0-4.33-3.52-7.85-7.85-7.85H9.01
			c-4.33,0-7.85,3.52-7.85,7.85V75.9C1.16,80.23,4.69,83.75,9.01,83.75z M4.57,35.46c0-2.45,1.99-4.45,4.44-4.45h58.14
			c2.45,0,4.44,1.99,4.44,4.45V75.9c0,2.45-1.99,4.44-4.44,4.44H9.01c-2.45,0-4.45-1.99-4.45-4.44V35.46z"/>
		<path class="st7" d="M104.04,2.92l-8.33,0.37c3.45,0,5.39,1.21,5.39,3.17v9.77h9.19V6.46C110.3,4.5,107.5,2.92,104.04,2.92z"/>
		<path class="st6" d="M102.82,93.51c-5.33,0-9.67,4.34-9.67,9.67c0,0.14,0,0.28,0.01,0.41c-0.01,0.08-0.01,0.14-0.01,0.19
			c0,0.14,0.02,0.28,0.05,0.42c0.54,4.93,4.67,8.65,9.62,8.65c5.33,0,9.67-4.34,9.67-9.67C112.5,97.84,108.16,93.51,102.82,93.51z
			 M108.54,105.76c-1.02,2.24-3.26,3.69-5.71,3.69c-2.45,0-4.7-1.45-5.71-3.69l-0.12-0.27h11.68L108.54,105.76z M96.64,102.08
			l0.05-0.24c0.62-2.86,3.2-4.94,6.13-4.94c2.93,0,5.51,2.08,6.13,4.94l0.05,0.24H96.64z"/>
		<path class="st6" d="M124.05,96.78h-1.14l-0.04-0.13c-0.34-1.03-0.77-2.04-1.26-3.01l-0.06-0.13l0.82-0.82
			c0.96-0.96,1.49-2.24,1.49-3.6s-0.53-2.64-1.49-3.6l-1.84-1.84c-0.96-0.96-2.24-1.49-3.6-1.49c-1.04,0-2.04,0.31-2.89,0.9
			l-0.3,0.21V8.38c0-4.35-3.54-7.88-7.88-7.88H40.77c-4.35,0-7.88,3.54-7.88,7.88v13.35c0,0.94,0.76,1.7,1.7,1.7s1.7-0.76,1.7-1.7
			v-4.75h74.02v66.5l-0.26-0.1c-0.23-0.08-0.46-0.17-0.7-0.24l-0.13-0.04v-1.14c0-2.81-2.28-5.09-5.09-5.09h-2.61
			c-2.81,0-5.09,2.28-5.09,5.09v1.03l-0.14,0.04c-1.07,0.34-2.12,0.76-3.13,1.26l-0.13,0.06l-0.7-0.7c-0.96-0.96-2.24-1.49-3.6-1.49
			c-1.36,0-2.64,0.53-3.6,1.49l-1.84,1.84c-0.96,0.96-1.49,2.24-1.49,3.6c0,1.36,0.53,2.64,1.49,3.6l0.6,0.6l-0.07,0.13
			c-0.55,1.04-1.01,2.12-1.38,3.23l-0.04,0.13h-0.8c-2.81,0-5.09,2.28-5.09,5.09v0.19l-0.19,0.02l-40.03,0V89.63
			c0-0.94-0.76-1.7-1.7-1.7s-1.7,0.76-1.7,1.7v20.86c0,4.35,3.54,7.88,7.88,7.88h41.15l0.04,0.15c0.22,0.88,0.68,1.69,1.34,2.35
			l1.84,1.84c0.96,0.96,2.24,1.49,3.6,1.49c1.36,0,2.64-0.53,3.6-1.49l0.48-0.48l0.13,0.07c1.08,0.55,2.2,1.01,3.35,1.37l0.14,0.04
			v0.7c0,2.81,2.28,5.09,5.09,5.09h2.61c2.81,0,5.09-2.28,5.09-5.09v-0.8l0.13-0.04c1.11-0.37,2.2-0.83,3.23-1.38l0.13-0.07l0.6,0.6
			c0.96,0.96,2.24,1.49,3.6,1.49c1.36,0,2.64-0.53,3.6-1.49l1.84-1.84c0.96-0.96,1.49-2.24,1.49-3.6c0-1.36-0.53-2.64-1.49-3.6
			l-0.7-0.7l0.06-0.13c0.5-1,0.92-2.06,1.26-3.13l0.04-0.14h1.03c2.81,0,5.09-2.28,5.09-5.09v-2.61
			C129.14,99.07,126.86,96.78,124.05,96.78z M36.29,13.58v-5.2c0-2.47,2.01-4.48,4.48-4.48h65.06c2.47,0,4.48,2.01,4.48,4.48v5.2
			H36.29z M83.29,113.66c-0.36,0.36-0.66,0.76-0.9,1.2l-0.05,0.1H40.77c-2.47,0-4.48-2.01-4.48-4.48v-5.01H76.6l0.03,0.15
			c0.54,2.32,2.58,3.94,4.96,3.94h0.7l0.04,0.14c0.36,1.15,0.82,2.27,1.37,3.35l0.06,0.13L83.29,113.66z M125.74,104.48
			c0,0.93-0.76,1.69-1.69,1.69h-1.42c-1.28,0-2.42,0.85-2.77,2.08c-0.34,1.2-0.81,2.37-1.4,3.47c-0.58,1.1-0.37,2.49,0.51,3.37
			l0.97,0.97c0.32,0.32,0.5,0.74,0.5,1.2c0,0.46-0.17,0.87-0.49,1.19l-1.84,1.84c-0.32,0.32-0.74,0.5-1.2,0.5s-0.87-0.17-1.19-0.49
			l-0.87-0.88c-0.55-0.55-1.27-0.84-2.04-0.84c-0.49,0-0.97,0.13-1.4,0.37c-1.12,0.63-2.32,1.14-3.55,1.52
			c-1.2,0.36-2.03,1.5-2.03,2.77v1.17c0,0.93-0.76,1.69-1.69,1.69h-2.61c-0.93,0-1.69-0.76-1.69-1.69v-1.08
			c0-1.29-0.85-2.42-2.07-2.77c-1.27-0.36-2.51-0.87-3.67-1.5c-0.41-0.23-0.88-0.35-1.36-0.35c-0.76,0-1.5,0.31-2.04,0.85
			l-0.75,0.75c-0.32,0.32-0.74,0.49-1.19,0.49s-0.87-0.17-1.2-0.49l-1.84-1.84c-0.32-0.32-0.49-0.74-0.49-1.19
			c0-0.07,0-0.14,0.01-0.21c0.01-0.06,0.02-0.1,0.03-0.15c0.07-0.32,0.23-0.6,0.46-0.83l0.75-0.75c0.9-0.9,1.1-2.3,0.5-3.4
			c-0.64-1.16-1.14-2.4-1.5-3.67c-0.35-1.22-1.48-2.07-2.77-2.07H81.6c-0.93,0-1.69-0.76-1.69-1.69v-2.61
			c0-0.93,0.76-1.69,1.69-1.69h1.17c1.27,0,2.4-0.84,2.77-2.03c0.37-1.24,0.89-2.43,1.52-3.55c0.63-1.11,0.43-2.53-0.48-3.44
			l-0.87-0.87c-0.32-0.32-0.49-0.74-0.49-1.19c0-0.46,0.17-0.87,0.49-1.2l1.84-1.84c0.32-0.32,0.74-0.5,1.19-0.5
			c0.46,0,0.87,0.17,1.2,0.5l0.97,0.97c0.54,0.54,1.28,0.85,2.04,0.85c0.47,0,0.92-0.11,1.34-0.33c1.1-0.59,2.27-1.06,3.47-1.4
			c1.22-0.35,2.08-1.49,2.08-2.77v-1.42c0-0.93,0.76-1.69,1.69-1.69h2.61c0.93,0,1.69,0.76,1.69,1.69v1.52
			c0,1.26,0.83,2.39,2.03,2.75c1.14,0.35,2.26,0.81,3.31,1.38c0.03,0.02,0.06,0.03,0.09,0.05c0.41,0.22,0.87,0.33,1.34,0.33
			c0.77,0,1.49-0.3,2.04-0.84l1.09-1.09c0.32-0.32,0.74-0.5,1.2-0.5c0.46,0,0.87,0.17,1.2,0.5l1.84,1.84
			c0.32,0.32,0.49,0.74,0.49,1.2c0,0.45-0.18,0.88-0.49,1.2l-1.09,1.09c-0.9,0.9-1.1,2.3-0.49,3.41c0.58,1.07,1.06,2.2,1.41,3.37
			c0.36,1.19,1.49,2.03,2.75,2.03h1.52c0.93,0,1.69,0.76,1.69,1.69V104.48z"/>
	</g>
</g>
</svg>
