<?xml version="1.0" encoding="utf-8"?>
<!-- Generator: Adobe Illustrator 23.0.5, SVG Export Plug-In . SVG Version: 6.00 Build 0)  -->
<svg version="1.1" id="Layer_1" xmlns="http://www.w3.org/2000/svg" xmlns:xlink="http://www.w3.org/1999/xlink" x="0px" y="0px"
	 viewBox="0 0 130 130" style="enable-background:new 0 0 130 130;" xml:space="preserve">
<style type="text/css">
	.st0{fill:#FFFFFF;}
	.st1{fill:#B4E5EA;}
	.st2{fill:#60B0C5;}
	.st3{fill:#E8E8E8;}
	.st4{fill:#E09721;}
	.st5{fill:#FFB954;}
	.st6{fill:#4094A8;}
	.st7{fill:#BF7810;}
	.st8{fill:#203447;}
</style>
<g>
	<path class="st0" d="M125.61,103.17l-22.95,22.95c-1.97,1.97-5.16,1.97-7.13,0L3.98,34.57c-1.97-1.97-1.97-5.16,0-7.13L26.94,4.49
		c1.97-1.97,5.16-1.97,7.13,0l91.55,91.55C127.58,98.01,127.58,101.2,125.61,103.17z"/>
	<path class="st1" d="M110.52,38.98l9.18-9.18c2.66-2.66,2.66-6.97,0-9.63l-9.63-9.63c-2.66-2.66-6.97-2.66-9.63,0l-9.18,9.18
		L110.52,38.98z"/>
	<path class="st2" d="M120.07,23.34l-4.72-4.76c1.57,1.46,1.06,3.21-0.06,4.43l-8.63,9.33c-1.13,1.22-2.54,2.67-2.54,2.67
		c1.57,1.46,7.01,3.73,8.14,2.51l8.63-9.33C122,26.97,121.64,24.8,120.07,23.34z"/>
	<path class="st3" d="M23.25,6.96l-8.98,8.97c3.38-3.37,8.39-3.82,11.21-1l89.3,89.46c2.81,2.82,2.36,7.84-1.02,11.21l8.98-8.97
		c3.38-3.37,3.83-8.39,1.02-11.21L34.46,5.97C31.64,3.15,26.62,3.59,23.25,6.96z"/>
	<path class="st4" d="M18.61,100.6l6.98-15.21l18.71,18.71l-15.21,6.98C22.42,114.13,15.55,107.26,18.61,100.6z"/>
	<path class="st5" d="M25.47,85.13l66.09-64.82c0,0,0,0,0,0l18.6,19.01L44.48,105L25.47,85.13z"/>
	
		<rect x="27.93" y="66.28" transform="matrix(0.7071 -0.7071 0.7071 0.7071 -27.3283 72.7016)" class="st4" width="92.32" height="6.11"/>
	<polygon class="st2" points="16.82,105.87 24.6,113.65 10.77,119.7 	"/>
	<polygon class="st6" points="20.94,110.08 10.77,116.24 11.56,119.7 24.6,114.51 	"/>
	<polygon class="st7" points="37.57,100.68 22.01,109.33 27.19,114.51 44.48,105 	"/>
	<g>
		<path class="st8" d="M67.33,57.73c0.56,0,1.12,0.23,1.52,0.63c0.4,0.4,0.63,0.95,0.62,1.51c0,0.56-0.23,1.12-0.63,1.51
			c-0.4,0.4-0.95,0.63-1.52,0.63c-1.12,0-2.14-1.02-2.14-2.14c0-0.56,0.23-1.12,0.63-1.52C66.21,57.96,66.76,57.73,67.33,57.73z"/>
		<path class="st8" d="M2.87,26.31c-1.27,1.27-1.97,2.97-1.97,4.77s0.7,3.5,1.97,4.77l9.13,9.13c0.67,0.67,1.75,0.67,2.42,0
			c0.32-0.32,0.5-0.75,0.5-1.21c0-0.46-0.18-0.89-0.5-1.21l-9.13-9.13c-0.6-0.6-0.95-1.46-0.95-2.35c0-0.9,0.35-1.75,0.95-2.35
			L28.24,5.78c0.63-0.63,1.46-0.98,2.35-0.98c0.89,0,1.72,0.35,2.35,0.98l5.11,5.11l-3,3c-0.64,0.64-0.64,1.78,0,2.42
			c0.67,0.67,1.75,0.67,2.42,0l3-3l7.45,7.45l-7.81,7.81c-0.64,0.64-0.64,1.77,0,2.42c0.32,0.32,0.75,0.5,1.21,0.5
			c0.46,0,0.89-0.18,1.21-0.5l7.81-7.81l7.45,7.45l-3,3c-0.31,0.31-0.48,0.75-0.48,1.21c0,0.46,0.17,0.9,0.48,1.21
			c0.36,0.33,0.77,0.5,1.21,0.5c0.46,0,0.89-0.18,1.21-0.5l3-3l7.68,7.68L40.22,68.38L28.76,56.91c-0.32-0.32-0.75-0.5-1.21-0.5
			c-0.46,0-0.89,0.18-1.21,0.5c-0.31,0.31-0.48,0.75-0.48,1.21c0,0.46,0.18,0.9,0.48,1.21L37.8,70.79L23.89,84.71
			c-0.15,0.15-0.26,0.31-0.35,0.5L7.23,120.77c-0.29,0.64-0.15,1.43,0.34,1.92c0.5,0.5,1.28,0.64,1.92,0.35l35.57-16.32
			c0.19-0.09,0.35-0.2,0.5-0.35l13.91-13.91l34.94,34.94c1.27,1.27,2.97,1.98,4.77,1.97c1.8,0,3.5-0.7,4.77-1.98l22.95-22.95
			c1.27-1.27,1.97-2.97,1.97-4.77c0-1.81-0.7-3.5-1.97-4.77L91.97,59.97l28.24-28.24c1.61-1.61,2.5-3.75,2.49-6.02
			c0-2.28-0.89-4.41-2.49-6.02l-9.63-9.63c-1.61-1.61-3.75-2.5-6.02-2.5c-2.27,0-4.41,0.89-6.02,2.5L70.3,38.3L35.36,3.36
			c-1.28-1.28-2.97-1.98-4.77-1.98c-1.8,0-3.5,0.7-4.77,1.98L2.87,26.31z M61.89,90.05l27.66-27.66l7.69,7.69l-3,3
			c-0.3,0.3-0.48,0.75-0.48,1.21c0,0.93,0.77,1.71,1.69,1.71c0.46,0,0.89-0.18,1.21-0.5l3-3l7.45,7.45l-7.81,7.81
			c-0.64,0.65-0.64,1.78,0,2.42c0.32,0.32,0.75,0.5,1.21,0.5c0.46,0,0.89-0.18,1.21-0.5l7.81-7.81l7.45,7.45l-3,3
			c-0.64,0.65-0.64,1.78,0,2.42c0.32,0.32,0.75,0.5,1.21,0.5c0.46,0,0.89-0.18,1.21-0.5l3-3l5.09,5.09c0.6,0.6,0.95,1.46,0.95,2.35
			c0,0.89-0.34,1.75-0.95,2.35l-22.95,22.95c-0.63,0.63-1.46,0.97-2.35,0.97c-0.89,0-1.73-0.35-2.35-0.97L61.89,90.05z
			 M117.79,29.31l-7.97,7.97L92.98,20.45l7.97-7.97c0.96-0.96,2.24-1.49,3.6-1.49c1.36,0,2.64,0.53,3.6,1.49l9.63,9.63
			c0.96,0.96,1.49,2.24,1.49,3.6C119.28,27.07,118.75,28.35,117.79,29.31z M17.15,107.36l5.76,5.76l-10.64,4.88l4.84-10.56
			L17.15,107.36z M25.63,88.87l15.77,15.77l-15.14,6.95l-0.04,0.02l-7.56-7.56l6.92-15.09L25.63,88.87z M90.56,22.87l4.83,4.83
			L73.95,49.16c-0.64,0.64-0.64,1.77,0,2.42c0.67,0.67,1.75,0.67,2.42,0l21.45-21.45l9.58,9.58l-63.04,63.04L27.52,85.92
			L90.56,22.87z"/>
	</g>
</g>
</svg>
